<svg version="1.0" preserveAspectRatio="xMidYMid meet" viewBox="43.5 114.749997246 287.25 143.999996544" zoomAndPan="magnify" xmlns:xlink="http://www.w3.org/1999/xlink" xmlns="http://www.w3.org/2000/svg" style="max-height: 500px" width="287.25" height="143.999996544"><defs><g/></defs><path stroke-miterlimit="4" stroke-opacity="1" stroke-width="13.999991" stroke="#38b6ff" d="M 18.87919 36.379479 C 24.322913 41.602795 28.1783 45.531651 30.452349 48.162551 C 31.624359 49.471003 32.212113 50.583538 32.212113 51.496656 C 32.212113 52.399278 31.498411 53.466332 30.074507 54.697817 C 28.654101 55.922305 27.48559 56.534549 26.572472 56.534549 C 25.669849 56.534549 24.581805 55.785862 23.304839 54.295485 L 11.574246 40.910084 L 11.574246 51.311234 C 11.574246 52.164876 11.549756 52.784117 11.497278 53.175954 C 11.4448 53.564291 11.27687 54.026098 10.98999 54.554377 C 10.486201 55.519973 9.097282 55.999273 6.823233 55.999273 C 4.339272 55.999273 2.880382 55.324055 2.446564 53.970121 C 2.24015 53.403358 2.135194 52.497237 2.135194 51.24826 L 2.135194 21.601661 C 2.135194 20.786502 2.159684 20.174258 2.212162 19.764929 C 2.26464 19.3556 2.436068 18.883298 2.719449 18.344523 C 3.216242 17.392921 4.601662 16.913622 6.875711 16.913622 C 9.366669 16.913622 10.843051 17.567848 11.30136 18.879799 C 11.483284 19.488545 11.574246 20.412158 11.574246 21.654139 L 11.574246 31.848874 C 16.409223 26.405152 20.320587 21.941019 23.304839 18.449479 C 24.546819 16.99059 25.627867 16.262894 26.547982 16.262894 C 27.475094 16.262894 28.654101 16.878636 30.074507 18.110121 C 31.498411 19.334609 32.212113 20.401663 32.212113 21.314781 C 32.212113 22.217403 31.676837 23.287955 30.609783 24.529936 C 28.552644 26.915938 25.354981 30.190568 21.013297 34.34683 Z M 58.762507 19.687961 L 73.162484 49.439516 C 73.771229 50.643013 74.075602 51.552633 74.075602 52.157879 C 74.075602 53.445341 73.040035 54.599858 70.975898 55.621431 C 69.768903 56.230176 68.817301 56.534549 68.124591 56.534549 C 67.428382 56.534549 66.861619 56.373616 66.417305 56.051751 C 65.97649 55.729885 65.654624 55.394026 65.455208 55.037175 C 65.262788 54.680324 64.989902 54.148547 64.633052 53.434845 L 61.862211 47.679753 L 47.084392 47.679753 L 44.310052 53.434845 C 43.953202 54.148547 43.676817 54.662832 43.477401 54.984697 C 43.284981 55.306562 42.970113 55.635425 42.525799 55.974783 C 42.084983 56.314141 41.514722 56.482071 40.822011 56.482071 C 40.125803 56.482071 39.177699 56.177698 37.970704 55.568953 C 35.903069 54.582365 34.871001 53.445341 34.871001 52.157879 C 34.871001 51.552633 35.175373 50.643013 35.78062 49.439516 L 50.184095 19.635483 C 50.572433 18.809829 51.167184 18.152104 51.964851 17.655312 C 52.766015 17.162018 53.612661 16.913622 54.504788 16.913622 C 56.421986 16.913622 57.842392 17.837235 58.762507 19.687961 Z M 54.45231 32.485608 L 50.925785 39.790553 L 58.020817 39.790553 Z M 102.252816 18.540441 C 102.592174 17.917702 103.099461 17.501376 103.778178 17.291464 C 104.453395 17.074554 105.296542 16.9661 106.304121 16.9661 C 107.318697 16.9661 108.137354 17.057062 108.763592 17.238986 C 109.38983 17.413912 109.848138 17.627323 110.145514 17.875719 C 110.446388 18.120617 110.673793 18.487963 110.820732 18.984755 C 111.030644 19.558515 111.132101 20.464636 111.132101 21.706617 L 111.132101 51.311234 C 111.132101 52.164876 111.107612 52.784117 111.055134 53.175954 C 111.002656 53.564291 110.834726 54.026098 110.547846 54.554377 C 110.051054 55.519973 108.669132 55.999273 106.395083 55.999273 C 105.006164 55.999273 104.040568 55.894316 103.505292 55.687903 C 102.973514 55.470994 102.532698 55.131636 102.175848 54.673327 C 94.181692 44.002791 88.919893 37.033706 86.393949 33.762574 L 86.393949 51.311234 C 86.393949 52.164876 86.365961 52.784117 86.302987 53.175954 C 86.250509 53.564291 86.086078 54.026098 85.809694 54.554377 C 85.305904 55.519973 83.916985 55.999273 81.642936 55.999273 C 79.438858 55.999273 78.088423 55.519973 77.59513 54.554377 C 77.30825 54.026098 77.136821 53.546798 77.084343 53.123476 C 77.035364 52.696654 77.007375 52.073915 77.007375 51.24826 L 77.007375 21.496705 C 77.007375 20.142771 77.178804 19.156184 77.514663 18.540441 C 77.854021 17.917702 78.357811 17.501376 79.026031 17.291464 C 79.701249 17.074554 80.575883 16.9661 81.642936 16.9661 C 82.70999 16.9661 83.553137 17.064059 84.16888 17.266974 C 84.795118 17.455895 85.232435 17.672804 85.48433 17.917702 C 85.624271 18.029655 86.030101 18.49496 86.708817 19.310119 C 94.216677 29.518849 99.23008 36.253532 101.745528 39.517667 L 101.745528 21.496705 C 101.745528 20.142771 101.913457 19.156184 102.252816 18.540441 Z M 137.955381 19.687961 L 152.355358 49.439516 C 152.964103 50.643013 153.264978 51.552633 153.264978 52.157879 C 153.264978 53.445341 152.232909 54.599858 150.168773 55.621431 C 148.961778 56.230176 148.010176 56.534549 147.317465 56.534549 C 146.621257 56.534549 146.054494 56.373616 145.61018 56.051751 C 145.169364 55.729885 144.847499 55.394026 144.648082 55.037175 C 144.455662 54.680324 144.182777 54.148547 143.825926 53.434845 L 141.055085 47.679753 L 126.277266 47.679753 L 123.502927 53.434845 C 123.146076 54.148547 122.869692 54.662832 122.670275 54.984697 C 122.477856 55.306562 122.162987 55.635425 121.718673 55.974783 C 121.274359 56.314141 120.707596 56.482071 120.011387 56.482071 C 119.318677 56.482071 118.367075 56.177698 117.16008 55.568953 C 115.095943 54.582365 114.063875 53.445341 114.063875 52.157879 C 114.063875 51.552633 114.368248 50.643013 114.973495 49.439516 L 129.373471 19.635483 C 129.765307 18.809829 130.360059 18.152104 131.157725 17.655312 C 131.955391 17.162018 132.802037 16.913622 133.697662 16.913622 C 135.614861 16.913622 137.035266 17.837235 137.955381 19.687961 Z M 133.645184 32.485608 L 130.115161 39.790553 L 137.213692 39.790553 Z M 133.645184 32.485608" stroke-linejoin="miter" fill="none" transform="matrix(1.116538, 0, 0, 1.116538, 52.401131, 133.771544)" stroke-linecap="butt"/><g fill-opacity="1" fill="#ffffff"><g transform="translate(52.401131, 196.297687)"><g><path d="M 21.078125 -21.90625 C 27.148438 -16.070312 31.457031 -11.6875 34 -8.75 C 35.3125 -7.28125 35.96875 -6.039062 35.96875 -5.03125 C 35.96875 -4.019531 35.171875 -2.828125 33.578125 -1.453125 C 31.992188 -0.0859375 30.695312 0.59375 29.6875 0.59375 C 28.675781 0.59375 27.453125 -0.238281 26.015625 -1.90625 L 12.921875 -16.859375 L 12.921875 -5.234375 C 12.921875 -4.285156 12.890625 -3.59375 12.828125 -3.15625 C 12.773438 -2.71875 12.585938 -2.203125 12.265625 -1.609375 C 11.710938 -0.535156 10.164062 0 7.625 0 C 4.84375 0 3.210938 -0.753906 2.734375 -2.265625 C 2.492188 -2.898438 2.375 -3.910156 2.375 -5.296875 L 2.375 -38.40625 C 2.375 -39.320312 2.40625 -40.003906 2.46875 -40.453125 C 2.53125 -40.910156 2.71875 -41.441406 3.03125 -42.046875 C 3.59375 -43.109375 5.144531 -43.640625 7.6875 -43.640625 C 10.457031 -43.640625 12.101562 -42.90625 12.625 -41.4375 C 12.820312 -40.769531 12.921875 -39.738281 12.921875 -38.34375 L 12.921875 -26.96875 C 18.316406 -33.039062 22.679688 -38.023438 26.015625 -41.921875 C 27.410156 -43.546875 28.625 -44.359375 29.65625 -44.359375 C 30.6875 -44.359375 31.992188 -43.671875 33.578125 -42.296875 C 35.171875 -40.929688 35.96875 -39.742188 35.96875 -38.734375 C 35.96875 -37.722656 35.375 -36.519531 34.1875 -35.125 C 31.875 -32.46875 28.300781 -28.816406 23.46875 -24.171875 Z M 21.078125 -21.90625"/></g></g></g><g fill-opacity="1" fill="#ffffff"><g transform="translate(90.448974, 196.297687)"><g><path d="M 27.5625 -40.546875 L 43.640625 -7.328125 C 44.316406 -5.972656 44.65625 -4.957031 44.65625 -4.28125 C 44.65625 -2.851562 43.503906 -1.566406 41.203125 -0.421875 C 39.859375 0.253906 38.796875 0.59375 38.015625 0.59375 C 37.242188 0.59375 36.609375 0.414062 36.109375 0.0625 C 35.617188 -0.289062 35.265625 -0.664062 35.046875 -1.0625 C 34.828125 -1.46875 34.519531 -2.066406 34.125 -2.859375 L 31.03125 -9.296875 L 14.53125 -9.296875 L 11.4375 -2.859375 C 11.039062 -2.066406 10.734375 -1.488281 10.515625 -1.125 C 10.296875 -0.769531 9.9375 -0.40625 9.4375 -0.03125 C 8.9375 0.34375 8.300781 0.53125 7.53125 0.53125 C 6.757812 0.53125 5.695312 0.195312 4.34375 -0.46875 C 2.039062 -1.582031 0.890625 -2.851562 0.890625 -4.28125 C 0.890625 -4.957031 1.226562 -5.972656 1.90625 -7.328125 L 17.984375 -40.609375 C 18.421875 -41.523438 19.082031 -42.257812 19.96875 -42.8125 C 20.863281 -43.363281 21.8125 -43.640625 22.8125 -43.640625 C 24.945312 -43.640625 26.53125 -42.609375 27.5625 -40.546875 Z M 22.75 -26.265625 L 18.8125 -18.109375 L 26.734375 -18.109375 Z M 22.75 -26.265625"/></g></g></g><g fill-opacity="1" fill="#ffffff"><g transform="translate(135.999207, 196.297687)"><g><path d="M 30.578125 -41.828125 C 30.953125 -42.523438 31.515625 -42.992188 32.265625 -43.234375 C 33.023438 -43.472656 33.96875 -43.59375 35.09375 -43.59375 C 36.226562 -43.59375 37.144531 -43.492188 37.84375 -43.296875 C 38.539062 -43.097656 39.054688 -42.859375 39.390625 -42.578125 C 39.722656 -42.296875 39.972656 -41.878906 40.140625 -41.328125 C 40.367188 -40.691406 40.484375 -39.675781 40.484375 -38.28125 L 40.484375 -5.234375 C 40.484375 -4.285156 40.453125 -3.59375 40.390625 -3.15625 C 40.335938 -2.71875 40.15625 -2.203125 39.84375 -1.609375 C 39.28125 -0.535156 37.726562 0 35.1875 0 C 33.644531 0 32.570312 -0.117188 31.96875 -0.359375 C 31.375 -0.597656 30.878906 -0.972656 30.484375 -1.484375 C 21.554688 -13.398438 15.679688 -21.179688 12.859375 -24.828125 L 12.859375 -5.234375 C 12.859375 -4.285156 12.828125 -3.59375 12.765625 -3.15625 C 12.710938 -2.71875 12.523438 -2.203125 12.203125 -1.609375 C 11.648438 -0.535156 10.101562 0 7.5625 0 C 5.101562 0 3.59375 -0.535156 3.03125 -1.609375 C 2.71875 -2.203125 2.53125 -2.738281 2.46875 -3.21875 C 2.40625 -3.695312 2.375 -4.390625 2.375 -5.296875 L 2.375 -38.53125 C 2.375 -40.039062 2.5625 -41.140625 2.9375 -41.828125 C 3.320312 -42.523438 3.890625 -42.992188 4.640625 -43.234375 C 5.398438 -43.472656 6.375 -43.59375 7.5625 -43.59375 C 8.75 -43.59375 9.691406 -43.484375 10.390625 -43.265625 C 11.085938 -43.046875 11.570312 -42.796875 11.84375 -42.515625 C 12.007812 -42.398438 12.46875 -41.882812 13.21875 -40.96875 C 21.59375 -29.570312 27.191406 -22.050781 30.015625 -18.40625 L 30.015625 -38.53125 C 30.015625 -40.039062 30.203125 -41.140625 30.578125 -41.828125 Z M 30.578125 -41.828125"/></g></g></g><g fill-opacity="1" fill="#ffffff"><g transform="translate(178.870027, 196.297687)"><g><path d="M 27.5625 -40.546875 L 43.640625 -7.328125 C 44.316406 -5.972656 44.65625 -4.957031 44.65625 -4.28125 C 44.65625 -2.851562 43.503906 -1.566406 41.203125 -0.421875 C 39.859375 0.253906 38.796875 0.59375 38.015625 0.59375 C 37.242188 0.59375 36.609375 0.414062 36.109375 0.0625 C 35.617188 -0.289062 35.265625 -0.664062 35.046875 -1.0625 C 34.828125 -1.46875 34.519531 -2.066406 34.125 -2.859375 L 31.03125 -9.296875 L 14.53125 -9.296875 L 11.4375 -2.859375 C 11.039062 -2.066406 10.734375 -1.488281 10.515625 -1.125 C 10.296875 -0.769531 9.9375 -0.40625 9.4375 -0.03125 C 8.9375 0.34375 8.300781 0.53125 7.53125 0.53125 C 6.757812 0.53125 5.695312 0.195312 4.34375 -0.46875 C 2.039062 -1.582031 0.890625 -2.851562 0.890625 -4.28125 C 0.890625 -4.957031 1.226562 -5.972656 1.90625 -7.328125 L 17.984375 -40.609375 C 18.421875 -41.523438 19.082031 -42.257812 19.96875 -42.8125 C 20.863281 -43.363281 21.8125 -43.640625 22.8125 -43.640625 C 24.945312 -43.640625 26.53125 -42.609375 27.5625 -40.546875 Z M 22.75 -26.265625 L 18.8125 -18.109375 L 26.734375 -18.109375 Z M 22.75 -26.265625"/></g></g></g><path stroke-miterlimit="4" stroke-opacity="1" stroke-width="13.999991" stroke="#ff5757" d="M 20.47901 16.431303 C 25.740809 16.431303 30.3064 18.334507 34.17928 22.133917 C 38.059157 25.936827 39.997346 30.659851 39.997346 36.299492 C 39.997346 41.935635 38.150119 46.735627 34.452165 50.699469 C 30.754212 54.659812 26.199118 56.636485 20.793879 56.636485 C 15.395637 56.636485 10.79856 54.684302 7.006146 50.779935 C 3.220729 46.865073 1.328021 42.201523 1.328021 36.796284 C 1.328021 33.843519 1.863297 31.083174 2.930351 28.515248 C 3.997404 25.936827 5.421309 23.774731 7.198565 22.03246 C 8.97932 20.28669 11.022466 18.918762 13.3315 17.928676 C 15.640534 16.931594 18.023038 16.431303 20.47901 16.431303 Z M 10.767073 36.533894 C 10.767073 39.703568 11.788645 42.271494 13.828292 44.244669 C 15.874936 46.214345 18.162979 47.197434 20.688922 47.197434 C 23.214866 47.197434 25.488915 46.238835 27.511069 44.321637 C 29.543719 42.404438 30.558294 39.826017 30.558294 36.586372 C 30.558294 33.350226 29.533223 30.754312 27.486579 28.802128 C 25.446932 26.846446 23.162388 25.870355 20.636444 25.870355 C 18.110501 25.870355 15.832954 26.856942 13.800304 28.826618 C 11.77815 30.796294 10.767073 33.367718 10.767073 36.533894 Z M 68.709836 18.54092 C 69.049194 17.918181 69.556482 17.498356 70.235198 17.291943 C 70.910415 17.075034 71.753563 16.966579 72.761141 16.966579 C 73.775717 16.966579 74.594374 17.057541 75.220612 17.239465 C 75.84685 17.414392 76.305159 17.624304 76.599036 17.876198 C 76.903408 18.121096 77.130813 18.488442 77.277752 18.985235 C 77.484166 19.555496 77.589122 20.465115 77.589122 21.703597 L 77.589122 51.311713 C 77.589122 52.161857 77.564632 52.784597 77.512154 53.172934 C 77.459676 53.56477 77.291746 54.026577 77.004866 54.554856 C 76.508074 55.516954 75.126152 55.999752 72.852103 55.999752 C 71.463184 55.999752 70.497588 55.894796 69.958813 55.688382 C 69.430534 55.471473 68.989719 55.132115 68.632868 54.670308 C 60.638712 44.00327 55.376913 37.034185 52.850969 33.763053 L 52.850969 51.311713 C 52.850969 52.161857 52.822981 52.784597 52.760007 53.172934 C 52.707529 53.56477 52.543098 54.026577 52.266714 54.554856 C 51.762925 55.516954 50.374005 55.999752 48.099957 55.999752 C 45.895879 55.999752 44.545444 55.516954 44.05215 54.554856 C 43.76527 54.026577 43.593842 53.547278 43.541364 53.123955 C 43.488885 52.697133 43.464396 52.070895 43.464396 51.248739 L 43.464396 21.497184 C 43.464396 20.14325 43.632325 19.156663 43.971684 18.54092 C 44.311042 17.918181 44.814831 17.498356 45.483051 17.291943 C 46.158269 17.075034 47.032903 16.966579 48.099957 16.966579 C 49.16701 16.966579 50.010158 17.064538 50.6259 17.263954 C 51.252138 17.456374 51.689455 17.673283 51.94135 17.918181 C 52.077793 18.030134 52.487122 18.491941 53.165838 19.310598 C 60.673697 29.51583 65.683602 36.254011 68.202548 39.518146 L 68.202548 21.497184 C 68.202548 20.14325 68.370478 19.156663 68.709836 18.54092 Z M 91.299887 48.110552 L 105.804819 48.110552 C 106.976829 48.110552 107.826973 48.243496 108.355252 48.512883 C 108.894027 48.775274 109.250878 49.191599 109.425805 49.761861 C 109.607729 50.328624 109.698691 51.084308 109.698691 52.028913 C 109.698691 52.96652 109.607729 53.722204 109.425805 54.295964 C 109.250878 54.859229 108.950004 55.247566 108.526681 55.464476 C 107.847965 55.821326 106.924351 55.999752 105.752341 55.999752 L 86.548874 55.999752 C 84.064913 55.999752 82.606023 55.324534 82.172205 53.9706 C 81.965791 53.403838 81.860835 52.497717 81.860835 51.248739 L 81.860835 21.60214 C 81.860835 20.783482 81.885325 20.174737 81.937803 19.765408 C 81.990281 19.356079 82.161709 18.883777 82.44509 18.345002 C 82.941883 17.389902 84.327303 16.914101 86.601352 16.914101 C 89.09231 16.914101 90.565194 17.568327 91.027001 18.880278 C 91.208925 19.489024 91.299887 20.412637 91.299887 21.654618 Z M 113.16574 21.60214 C 113.16574 20.783482 113.19023 20.174737 113.242708 19.765408 C 113.295186 19.356079 113.463116 18.883777 113.749996 18.345002 C 114.24329 17.389902 115.62871 16.914101 117.902759 16.914101 C 120.393717 16.914101 121.870099 17.568327 122.331906 18.880278 C 122.51383 19.489024 122.604792 20.412637 122.604792 21.654618 L 122.604792 51.311713 C 122.604792 52.161857 122.576804 52.784597 122.524326 53.172934 C 122.471848 53.56477 122.303918 54.026577 122.017038 54.554856 C 121.513249 55.516954 120.12433 55.999752 117.850281 55.999752 C 115.369818 55.999752 113.910929 55.324534 113.47711 53.9706 C 113.267198 53.403838 113.16574 52.497717 113.16574 51.248739 Z M 152.114948 18.54092 C 152.454306 17.918181 152.961594 17.498356 153.64031 17.291943 C 154.315528 17.075034 155.158675 16.966579 156.166254 16.966579 C 157.180829 16.966579 157.999487 17.057541 158.625725 17.239465 C 159.251963 17.414392 159.710271 17.624304 160.004148 17.876198 C 160.308521 18.121096 160.535926 18.488442 160.682864 18.985235 C 160.889278 19.555496 160.994234 20.465115 160.994234 21.703597 L 160.994234 51.311713 C 160.994234 52.161857 160.969744 52.784597 160.917266 53.172934 C 160.864788 53.56477 160.696858 54.026577 160.409978 54.554856 C 159.913186 55.516954 158.531264 55.999752 156.257216 55.999752 C 154.868297 55.999752 153.9027 55.894796 153.363926 55.688382 C 152.835647 55.471473 152.394831 55.132115 152.03798 54.670308 C 144.043824 44.00327 138.782025 37.034185 136.256082 33.763053 L 136.256082 51.311713 C 136.256082 52.161857 136.228094 52.784597 136.16512 53.172934 C 136.112642 53.56477 135.948211 54.026577 135.671826 54.554856 C 135.168037 55.516954 133.779118 55.999752 131.505069 55.999752 C 129.300991 55.999752 127.950556 55.516954 127.453764 54.554856 C 127.170382 54.026577 126.998954 53.547278 126.946476 53.123955 C 126.893998 52.697133 126.869508 52.070895 126.869508 51.248739 L 126.869508 21.497184 C 126.869508 20.14325 127.037438 19.156663 127.376796 18.54092 C 127.716154 17.918181 128.219943 17.498356 128.888164 17.291943 C 129.563381 17.075034 130.438015 16.966579 131.505069 16.966579 C 132.572123 16.966579 133.41527 17.064538 134.031013 17.263954 C 134.657251 17.456374 135.094568 17.673283 135.346462 17.918181 C 135.482905 18.030134 135.892234 18.491941 136.57095 19.310598 C 144.07881 29.51583 149.088714 36.254011 151.60766 39.518146 L 151.60766 21.497184 C 151.60766 20.14325 151.77559 19.156663 152.114948 18.54092 Z M 174.704999 46.5607 L 191.123631 46.5607 C 191.949286 46.5607 192.565028 46.58519 192.970859 46.637668 C 193.380187 46.690146 193.848991 46.861574 194.37727 47.144956 C 195.342866 47.641748 195.822166 49.030667 195.822166 51.311713 C 195.822166 53.795674 195.164441 55.247566 193.845493 55.674388 C 193.247243 55.891297 192.320131 55.999752 191.071153 55.999752 L 169.953986 55.999752 C 167.470025 55.999752 166.011136 55.324534 165.577317 53.9706 C 165.370903 53.403838 165.265947 52.497717 165.265947 51.248739 L 165.265947 21.60214 C 165.265947 19.786399 165.598308 18.554914 166.270027 17.904187 C 166.945245 17.242963 168.229208 16.914101 170.121916 16.914101 L 191.123631 16.914101 C 191.949286 16.914101 192.565028 16.938591 192.970859 16.991069 C 193.380187 17.043547 193.848991 17.214975 194.37727 17.498356 C 195.342866 17.995149 195.822166 19.380569 195.822166 21.654618 C 195.822166 24.145576 195.164441 25.600967 193.845493 26.027789 C 193.247243 26.244698 192.320131 26.353153 191.071153 26.353153 L 174.704999 26.353153 L 174.704999 31.730403 L 185.263582 31.730403 C 186.078741 31.730403 186.690985 31.76189 187.100314 31.821365 C 187.509643 31.873843 187.981945 32.038275 188.52072 32.318157 C 189.475821 32.818448 189.951621 34.207367 189.951621 36.481416 C 189.951621 38.975873 189.279902 40.431264 187.932966 40.858085 C 187.327719 41.064499 186.400607 41.169455 185.158626 41.169455 L 174.704999 41.169455 Z M 174.704999 46.5607" stroke-linejoin="miter" fill="none" transform="matrix(1.116538, 0, 0, 1.116538, 102.454714, 185.763197)" stroke-linecap="butt"/><g fill-opacity="1" fill="#ffffff"><g transform="translate(102.454714, 248.28934)"><g><path d="M 22.859375 -44.1875 C 28.734375 -44.1875 33.832031 -42.0625 38.15625 -37.8125 C 42.488281 -33.5625 44.65625 -28.289062 44.65625 -22 C 44.65625 -15.707031 42.59375 -10.347656 38.46875 -5.921875 C 34.34375 -1.492188 29.257812 0.71875 23.21875 0.71875 C 17.1875 0.71875 12.054688 -1.460938 7.828125 -5.828125 C 3.597656 -10.203125 1.484375 -15.40625 1.484375 -21.4375 C 1.484375 -24.726562 2.078125 -27.8125 3.265625 -30.6875 C 4.460938 -33.570312 6.050781 -35.984375 8.03125 -37.921875 C 10.019531 -39.867188 12.300781 -41.398438 14.875 -42.515625 C 17.457031 -43.628906 20.117188 -44.1875 22.859375 -44.1875 Z M 12.03125 -21.734375 C 12.03125 -18.203125 13.171875 -15.332031 15.453125 -13.125 C 17.734375 -10.925781 20.28125 -9.828125 23.09375 -9.828125 C 25.914062 -9.828125 28.457031 -10.894531 30.71875 -13.03125 C 32.988281 -15.175781 34.125 -18.054688 34.125 -21.671875 C 34.125 -25.285156 32.976562 -28.179688 30.6875 -30.359375 C 28.40625 -32.546875 25.851562 -33.640625 23.03125 -33.640625 C 20.21875 -33.640625 17.679688 -32.535156 15.421875 -30.328125 C 13.160156 -28.128906 12.03125 -25.265625 12.03125 -21.734375 Z M 12.03125 -21.734375"/></g></g></g><g fill-opacity="1" fill="#ffffff"><g transform="translate(148.600374, 248.28934)"><g><path d="M 30.578125 -41.828125 C 30.953125 -42.523438 31.515625 -42.992188 32.265625 -43.234375 C 33.023438 -43.472656 33.96875 -43.59375 35.09375 -43.59375 C 36.226562 -43.59375 37.144531 -43.492188 37.84375 -43.296875 C 38.539062 -43.097656 39.054688 -42.859375 39.390625 -42.578125 C 39.722656 -42.296875 39.972656 -41.878906 40.140625 -41.328125 C 40.367188 -40.691406 40.484375 -39.675781 40.484375 -38.28125 L 40.484375 -5.234375 C 40.484375 -4.285156 40.453125 -3.59375 40.390625 -3.15625 C 40.335938 -2.71875 40.15625 -2.203125 39.84375 -1.609375 C 39.28125 -0.535156 37.726562 0 35.1875 0 C 33.644531 0 32.570312 -0.117188 31.96875 -0.359375 C 31.375 -0.597656 30.878906 -0.972656 30.484375 -1.484375 C 21.554688 -13.398438 15.679688 -21.179688 12.859375 -24.828125 L 12.859375 -5.234375 C 12.859375 -4.285156 12.828125 -3.59375 12.765625 -3.15625 C 12.710938 -2.71875 12.523438 -2.203125 12.203125 -1.609375 C 11.648438 -0.535156 10.101562 0 7.5625 0 C 5.101562 0 3.59375 -0.535156 3.03125 -1.609375 C 2.71875 -2.203125 2.53125 -2.738281 2.46875 -3.21875 C 2.40625 -3.695312 2.375 -4.390625 2.375 -5.296875 L 2.375 -38.53125 C 2.375 -40.039062 2.5625 -41.140625 2.9375 -41.828125 C 3.320312 -42.523438 3.890625 -42.992188 4.640625 -43.234375 C 5.398438 -43.472656 6.375 -43.59375 7.5625 -43.59375 C 8.75 -43.59375 9.691406 -43.484375 10.390625 -43.265625 C 11.085938 -43.046875 11.570312 -42.796875 11.84375 -42.515625 C 12.007812 -42.398438 12.46875 -41.882812 13.21875 -40.96875 C 21.59375 -29.570312 27.191406 -22.050781 30.015625 -18.40625 L 30.015625 -38.53125 C 30.015625 -40.039062 30.203125 -41.140625 30.578125 -41.828125 Z M 30.578125 -41.828125"/></g></g></g><g fill-opacity="1" fill="#ffffff"><g transform="translate(191.471194, 248.28934)"><g><path d="M 12.921875 -8.8125 L 29.125 -8.8125 C 30.425781 -8.8125 31.375 -8.660156 31.96875 -8.359375 C 32.570312 -8.066406 32.972656 -7.601562 33.171875 -6.96875 C 33.367188 -6.332031 33.46875 -5.488281 33.46875 -4.4375 C 33.46875 -3.382812 33.367188 -2.539062 33.171875 -1.90625 C 32.972656 -1.269531 32.632812 -0.832031 32.15625 -0.59375 C 31.40625 -0.195312 30.375 0 29.0625 0 L 7.625 0 C 4.84375 0 3.210938 -0.753906 2.734375 -2.265625 C 2.492188 -2.898438 2.375 -3.910156 2.375 -5.296875 L 2.375 -38.40625 C 2.375 -39.320312 2.40625 -40.003906 2.46875 -40.453125 C 2.53125 -40.910156 2.71875 -41.441406 3.03125 -42.046875 C 3.59375 -43.109375 5.144531 -43.640625 7.6875 -43.640625 C 10.457031 -43.640625 12.101562 -42.90625 12.625 -41.4375 C 12.820312 -40.769531 12.921875 -39.738281 12.921875 -38.34375 Z M 12.921875 -8.8125"/></g></g></g><g fill-opacity="1" fill="#ffffff"><g transform="translate(226.422815, 248.28934)"><g><path d="M 2.375 -38.40625 C 2.375 -39.320312 2.40625 -40.003906 2.46875 -40.453125 C 2.53125 -40.910156 2.71875 -41.441406 3.03125 -42.046875 C 3.59375 -43.109375 5.144531 -43.640625 7.6875 -43.640625 C 10.457031 -43.640625 12.101562 -42.90625 12.625 -41.4375 C 12.820312 -40.769531 12.921875 -39.738281 12.921875 -38.34375 L 12.921875 -5.234375 C 12.921875 -4.285156 12.890625 -3.59375 12.828125 -3.15625 C 12.773438 -2.71875 12.585938 -2.203125 12.265625 -1.609375 C 11.710938 -0.535156 10.164062 0 7.625 0 C 4.84375 0 3.210938 -0.753906 2.734375 -2.265625 C 2.492188 -2.898438 2.375 -3.910156 2.375 -5.296875 Z M 2.375 -38.40625"/></g></g></g><g fill-opacity="1" fill="#ffffff"><g transform="translate(241.725314, 248.28934)"><g><path d="M 30.578125 -41.828125 C 30.953125 -42.523438 31.515625 -42.992188 32.265625 -43.234375 C 33.023438 -43.472656 33.96875 -43.59375 35.09375 -43.59375 C 36.226562 -43.59375 37.144531 -43.492188 37.84375 -43.296875 C 38.539062 -43.097656 39.054688 -42.859375 39.390625 -42.578125 C 39.722656 -42.296875 39.972656 -41.878906 40.140625 -41.328125 C 40.367188 -40.691406 40.484375 -39.675781 40.484375 -38.28125 L 40.484375 -5.234375 C 40.484375 -4.285156 40.453125 -3.59375 40.390625 -3.15625 C 40.335938 -2.71875 40.15625 -2.203125 39.84375 -1.609375 C 39.28125 -0.535156 37.726562 0 35.1875 0 C 33.644531 0 32.570312 -0.117188 31.96875 -0.359375 C 31.375 -0.597656 30.878906 -0.972656 30.484375 -1.484375 C 21.554688 -13.398438 15.679688 -21.179688 12.859375 -24.828125 L 12.859375 -5.234375 C 12.859375 -4.285156 12.828125 -3.59375 12.765625 -3.15625 C 12.710938 -2.71875 12.523438 -2.203125 12.203125 -1.609375 C 11.648438 -0.535156 10.101562 0 7.5625 0 C 5.101562 0 3.59375 -0.535156 3.03125 -1.609375 C 2.71875 -2.203125 2.53125 -2.738281 2.46875 -3.21875 C 2.40625 -3.695312 2.375 -4.390625 2.375 -5.296875 L 2.375 -38.53125 C 2.375 -40.039062 2.5625 -41.140625 2.9375 -41.828125 C 3.320312 -42.523438 3.890625 -42.992188 4.640625 -43.234375 C 5.398438 -43.472656 6.375 -43.59375 7.5625 -43.59375 C 8.75 -43.59375 9.691406 -43.484375 10.390625 -43.265625 C 11.085938 -43.046875 11.570312 -42.796875 11.84375 -42.515625 C 12.007812 -42.398438 12.46875 -41.882812 13.21875 -40.96875 C 21.59375 -29.570312 27.191406 -22.050781 30.015625 -18.40625 L 30.015625 -38.53125 C 30.015625 -40.039062 30.203125 -41.140625 30.578125 -41.828125 Z M 30.578125 -41.828125"/></g></g></g><g fill-opacity="1" fill="#ffffff"><g transform="translate(284.596134, 248.28934)"><g><path d="M 12.921875 -10.546875 L 31.265625 -10.546875 C 32.171875 -10.546875 32.851562 -10.515625 33.3125 -10.453125 C 33.769531 -10.390625 34.296875 -10.203125 34.890625 -9.890625 C 35.960938 -9.328125 36.5 -7.773438 36.5 -5.234375 C 36.5 -2.460938 35.765625 -0.835938 34.296875 -0.359375 C 33.617188 -0.117188 32.585938 0 31.203125 0 L 7.625 0 C 4.84375 0 3.210938 -0.753906 2.734375 -2.265625 C 2.492188 -2.898438 2.375 -3.910156 2.375 -5.296875 L 2.375 -38.40625 C 2.375 -40.425781 2.75 -41.800781 3.5 -42.53125 C 4.257812 -43.269531 5.691406 -43.640625 7.796875 -43.640625 L 31.265625 -43.640625 C 32.171875 -43.640625 32.851562 -43.609375 33.3125 -43.546875 C 33.769531 -43.492188 34.296875 -43.3125 34.890625 -43 C 35.960938 -42.4375 36.5 -40.882812 36.5 -38.34375 C 36.5 -35.570312 35.765625 -33.945312 34.296875 -33.46875 C 33.617188 -33.226562 32.585938 -33.109375 31.203125 -33.109375 L 12.921875 -33.109375 L 12.921875 -27.09375 L 24.71875 -27.09375 C 25.625 -27.09375 26.304688 -27.0625 26.765625 -27 C 27.222656 -26.945312 27.75 -26.757812 28.34375 -26.4375 C 29.414062 -25.882812 29.953125 -24.335938 29.953125 -21.796875 C 29.953125 -19.015625 29.195312 -17.382812 27.6875 -16.90625 C 27.007812 -16.664062 25.976562 -16.546875 24.59375 -16.546875 L 12.921875 -16.546875 Z M 12.921875 -10.546875"/></g></g></g><path stroke-miterlimit="4" stroke-opacity="1" stroke-width="13.999991" stroke="#38b6ff" d="M 32.587484 32.537127 C 30.298339 38.343497 27.145421 42.614832 23.682749 45.872273 C 23.150259 42.822103 22.770351 39.6338 22.772978 36.261785 C 22.771424 35.572114 22.773312 34.881813 22.771759 34.192142 C 25.283372 33.2815 28.319899 32.538115 31.730399 32.537265 Z M 19.034027 36.742319 C 19.036919 40.689473 19.516316 44.908755 20.25818 48.695975 C 17.603785 50.557391 15.039291 51.470584 13.008133 51.468326 C 11.041439 51.468514 10.025068 50.402367 10.025666 48.264819 C 10.024678 43.997234 13.918054 38.776157 19.033854 35.84612 Z M 37.601261 29.593726 C 37.915037 28.800197 38.344638 27.356007 38.670399 26.666983 L 34.399357 25.598104 C 34.346614 26.457739 34.072476 27.837955 33.864164 28.644219 L 33.710639 29.127502 C 33.071298 29.073624 32.420741 29.075143 31.780509 29.074775 C 29.11319 29.074962 25.869892 29.543163 22.928016 30.454188 C 23.098438 28.214477 23.255094 25.977281 23.46325 23.944062 C 29.921614 23.631645 36.962911 22.928187 42.510787 22.031736 L 42.444951 18.032068 C 37.017843 19.25854 30.610192 19.945788 23.944374 20.271219 C 24.152652 18.725215 24.372389 17.397618 24.581348 16.26404 C 24.75002 15.571713 24.960707 14.622756 25.220117 13.920961 L 20.740903 13.814805 C 20.739906 14.451596 20.687303 15.46769 20.58512 16.329246 C 20.480038 17.447399 20.323244 18.82751 20.15471 20.376921 C 18.983816 20.430848 17.809743 20.428452 16.63974 20.428869 C 14.399242 20.429302 9.763954 20.052924 7.941596 19.792009 L 8.045917 23.788202 C 10.181055 23.892378 14.297386 24.114636 16.587323 24.112283 C 17.604937 24.114818 18.671991 24.115431 19.789375 24.060613 C 19.568133 26.508774 19.308911 29.177263 19.203336 31.849683 C 11.952188 35.14148 6.028298 42.134861 6.027446 48.902982 C 6.026791 53.434046 8.750463 55.571669 12.317423 55.570681 C 15.141202 55.570354 18.293798 54.450111 21.170147 52.693951 C 21.443337 53.760761 21.758053 54.723957 22.029217 55.623982 L 25.922444 54.450196 C 25.495067 53.123489 25.063514 51.676624 24.632555 50.194086 C 29.111427 46.405968 33.382587 40.58594 36.311426 33.122721 C 41.273938 34.452897 43.890361 38.086055 43.891104 42.079836 C 43.88999 48.904908 38.018688 53.8117 28.527204 54.827758 L 30.818759 58.395806 C 43.098175 56.482628 48.109304 49.865875 48.108498 42.290739 C 48.110518 36.482653 44.151162 31.572731 37.549515 29.81657 Z M 37.601261 29.593726" stroke-linejoin="miter" fill="none" transform="matrix(1.09835, 0.200711, -0.200711, 1.09835, 246.284988, 106.710447)" stroke-linecap="butt"/><g fill-opacity="1" fill="#ffffff"><g transform="translate(235.045146, 168.218045)"><g><path d="M 40.5 -19.234375 C 36.828125 -13.296875 32.5 -9.25 28.03125 -6.375 C 28.0625 -9.828125 28.28125 -13.421875 28.953125 -17.109375 C 29.09375 -17.875 29.234375 -18.625 29.375 -19.40625 C 32.328125 -19.875 35.8125 -20.09375 39.5625 -19.40625 Z M 24.78125 -17.328125 C 24 -12.984375 23.671875 -8.265625 23.71875 -3.953125 C 20.421875 -2.453125 17.421875 -1.96875 15.203125 -2.375 C 13.03125 -2.765625 12.125 -4.125 12.546875 -6.484375 C 13.40625 -11.15625 18.75 -16.125 24.96875 -18.328125 Z M 46.59375 -21.4375 C 47.109375 -22.265625 47.859375 -23.765625 48.359375 -24.453125 L 43.875 -26.484375 C 43.640625 -25.5625 43.078125 -24.078125 42.6875 -23.25 L 42.421875 -22.765625 C 41.71875 -22.953125 41.015625 -23.09375 40.3125 -23.21875 C 37.390625 -23.75 33.71875 -23.859375 30.3125 -23.4375 C 30.9375 -25.890625 31.578125 -28.3125 32.21875 -30.5 C 39.359375 -29.546875 47.234375 -28.890625 53.5 -28.78125 L 54.265625 -33.1875 C 48.03125 -32.9375 40.859375 -33.453125 33.46875 -34.421875 C 34.015625 -36.109375 34.53125 -37.515625 34.96875 -38.703125 C 35.28125 -39.4375 35.734375 -40.4375 36.171875 -41.15625 L 31.25 -42.1875 C 31.125 -41.484375 30.875 -40.359375 30.578125 -39.453125 C 30.21875 -38.234375 29.765625 -36.75 29.3125 -35.09375 C 28 -35.265625 26.703125 -35.5 25.421875 -35.734375 C 22.953125 -36.1875 17.9375 -37.53125 16 -38.1875 L 15.3125 -33.765625 C 17.625 -33.21875 22.09375 -32.15625 24.625 -31.703125 C 25.734375 -31.5 26.90625 -31.28125 28.140625 -31.125 C 27.421875 -28.46875 26.609375 -25.59375 25.9375 -22.671875 C 17.3125 -20.5 9.40625 -14.03125 8.046875 -6.59375 C 7.140625 -1.609375 9.6875 1.28125 13.609375 2 C 16.703125 2.5625 20.40625 1.96875 23.90625 0.625 C 24 1.84375 24.15625 2.96875 24.265625 4 L 28.78125 3.5 C 28.578125 1.953125 28.40625 0.28125 28.234375 -1.421875 C 33.90625 -4.703125 39.765625 -10.21875 44.484375 -17.84375 C 49.671875 -15.390625 51.796875 -10.859375 51 -6.484375 C 49.625 1.015625 42.203125 5.234375 31.578125 4.4375 L 33.375 8.8125 C 47.234375 9.15625 54.078125 2.921875 55.59375 -5.390625 C 56.765625 -11.78125 53.421875 -17.96875 46.484375 -21.234375 Z M 46.59375 -21.4375"/></g></g></g></svg>