<svg xmlns="http://www.w3.org/2000/svg" xmlns:xlink="http://www.w3.org/1999/xlink" zoomAndPan="magnify" preserveAspectRatio="xMidYMid meet" version="1.0" viewBox="16.2 57.23 348.72 245.74"><path stroke-linecap="butt" transform="matrix(0.744115, 0.0937702, -0.0937702, 0.744115, 52.401145, -36.517556)" fill="none" stroke-linejoin="miter" d="M 13.8358 264.373241 C 13.832903 223.359067 24.51968 192.105821 45.897434 170.623839 C 67.274537 149.136688 94.77756 138.395034 128.416836 138.397574 C 162.055462 138.394946 189.697405 149.001353 211.342668 170.216794 C 232.987278 191.427068 243.814214 222.814491 243.811838 264.370031 C 243.812868 300.287151 235.456136 328.826744 218.746158 349.98299 L 244.789457 374.39762 L 218.587471 401.2541 L 190.429588 374.722656 C 173.064797 385.142148 152.559682 390.345627 128.90586 390.349899 C 96.46365 390.348746 69.17217 380.065643 47.037238 359.505104 C 24.902305 338.944565 13.834725 307.230499 13.8358 264.373241 Z M 63.800507 264.371085 C 63.799862 292.151653 69.985663 313.036935 82.353396 327.032749 C 94.726947 341.03308 110.406904 348.028598 129.394567 348.029638 C 139.2689 348.029454 148.220065 346.077291 156.248061 342.17315 L 131.833375 319.059903 L 157.552622 292.038525 L 182.778873 315.968169 C 190.157224 302.618005 193.843632 285.423224 193.847131 264.372187 C 193.847356 237.463093 187.904026 216.793984 176.021657 202.35904 C 164.139939 187.929264 148.379656 180.71289 128.74146 180.715084 C 109.102612 180.712111 93.367717 187.902484 81.541292 202.280383 C 69.714867 216.658282 63.803211 237.356688 63.800507 264.371085 Z M 63.800507 264.371085 " stroke="#000000" stroke-width="9.374991" stroke-opacity="1" stroke-miterlimit="4"/><path stroke-linecap="butt" transform="matrix(0.562124, -0.0486267, 0.0486267, 0.562124, 185.913727, 54.040837)" fill="none" stroke-linejoin="miter" d="M 256.511333 383.997967 L 209.799217 384.001495 L 209.798801 222.379425 L 210.445831 183.97216 L 209.146455 183.970943 L 164.387072 383.999343 L 115.395876 384.000294 L 71.776782 183.970693 L 70.637242 183.969404 L 71.122855 222.377361 L 71.123271 383.999431 L 24.411154 384.002959 L 24.413752 144.745869 L 97.490612 144.743728 L 140.621799 333.383251 L 141.601504 333.384612 L 184.08331 144.743329 L 256.506437 144.747178 Z M 256.511333 383.997967 " stroke="#000000" stroke-width="9.374991" stroke-opacity="1" stroke-miterlimit="4"/></svg>