<svg xmlns="http://www.w3.org/2000/svg" xmlns:xlink="http://www.w3.org/1999/xlink" zoomAndPan="magnify" preserveAspectRatio="xMidYMid meet" version="1.0" viewBox="47.43 159.37 279.33 56.27"><defs><g/><clipPath id="a4eea961df"><path d="M 47.433594 159.371094 L 103.683594 159.371094 L 103.683594 215.621094 L 47.433594 215.621094 Z M 47.433594 159.371094 " clip-rule="nonzero"/></clipPath><clipPath id="501aebe6e0"><path d="M 75.558594 159.371094 C 60.023438 159.371094 47.433594 171.964844 47.433594 187.496094 C 47.433594 203.03125 60.023438 215.621094 75.558594 215.621094 C 91.089844 215.621094 103.683594 203.03125 103.683594 187.496094 C 103.683594 171.964844 91.089844 159.371094 75.558594 159.371094 Z M 75.558594 159.371094 " clip-rule="nonzero"/></clipPath><linearGradient x1="0" gradientTransform="matrix(0.219726, 0, 0, 0.219726, 47.432933, 159.371836)" y1="0.0000207509" x2="0" gradientUnits="userSpaceOnUse" y2="256.000665" id="40d8a65d6b"><stop stop-opacity="1" stop-color="rgb(7.499695%, 36.898804%, 59.199524%)" offset="0"/><stop stop-opacity="1" stop-color="rgb(7.499695%, 36.898804%, 59.199524%)" offset="0.015625"/><stop stop-opacity="1" stop-color="rgb(7.499695%, 36.799622%, 59.100342%)" offset="0.0234375"/><stop stop-opacity="1" stop-color="rgb(7.499695%, 36.599731%, 58.8974%)" offset="0.03125"/><stop stop-opacity="1" stop-color="rgb(7.499695%, 36.499023%, 58.598328%)" offset="0.046875"/><stop stop-opacity="1" stop-color="rgb(7.499695%, 36.499023%, 58.401489%)" offset="0.0625"/><stop stop-opacity="1" stop-color="rgb(7.499695%, 36.401367%, 58.302307%)" offset="0.0703125"/><stop stop-opacity="1" stop-color="rgb(7.498169%, 36.201477%, 58.100891%)" offset="0.078125"/><stop stop-opacity="1" stop-color="rgb(7.301331%, 36.099243%, 57.998657%)" offset="0.09375"/><stop stop-opacity="1" stop-color="rgb(7.102966%, 35.998535%, 57.897949%)" offset="0.101562"/><stop stop-opacity="1" stop-color="rgb(7.099915%, 35.798645%, 57.695007%)" offset="0.109375"/><stop stop-opacity="1" stop-color="rgb(7.099915%, 35.699463%, 57.446289%)" offset="0.125"/><stop stop-opacity="1" stop-color="rgb(7.099915%, 35.699463%, 57.299805%)" offset="0.140625"/><stop stop-opacity="1" stop-color="rgb(7.099915%, 35.600281%, 57.200623%)" offset="0.148438"/><stop stop-opacity="1" stop-color="rgb(7.099915%, 35.400391%, 56.999207%)" offset="0.15625"/><stop stop-opacity="1" stop-color="rgb(7.099915%, 35.105896%, 56.704712%)" offset="0.1875"/><stop stop-opacity="1" stop-color="rgb(7.099915%, 34.906006%, 56.408691%)" offset="0.195312"/><stop stop-opacity="1" stop-color="rgb(7.096863%, 34.899902%, 56.201172%)" offset="0.203125"/><stop stop-opacity="1" stop-color="rgb(6.900024%, 34.899902%, 56.098938%)" offset="0.21875"/><stop stop-opacity="1" stop-color="rgb(6.70166%, 34.797668%, 55.99823%)" offset="0.226562"/><stop stop-opacity="1" stop-color="rgb(6.698608%, 34.597778%, 55.79834%)" offset="0.234375"/><stop stop-opacity="1" stop-color="rgb(6.698608%, 34.498596%, 55.699158%)" offset="0.25"/><stop stop-opacity="1" stop-color="rgb(6.698608%, 34.303284%, 55.503845%)" offset="0.265625"/><stop stop-opacity="1" stop-color="rgb(6.698608%, 34.103394%, 55.204773%)" offset="0.273438"/><stop stop-opacity="1" stop-color="rgb(6.698608%, 34.098816%, 55.000305%)" offset="0.28125"/><stop stop-opacity="1" stop-color="rgb(6.698608%, 33.905029%, 54.705811%)" offset="0.3125"/><stop stop-opacity="1" stop-color="rgb(6.698608%, 33.705139%, 54.408264%)" offset="0.320312"/><stop stop-opacity="1" stop-color="rgb(6.697083%, 33.69751%, 54.200745%)" offset="0.328125"/><stop stop-opacity="1" stop-color="rgb(6.500244%, 33.500671%, 54.098511%)" offset="0.34375"/><stop stop-opacity="1" stop-color="rgb(6.30188%, 33.302307%, 53.997803%)" offset="0.351562"/><stop stop-opacity="1" stop-color="rgb(6.298828%, 33.299255%, 53.797913%)" offset="0.359375"/><stop stop-opacity="1" stop-color="rgb(6.298828%, 33.299255%, 53.69873%)" offset="0.375"/><stop stop-opacity="1" stop-color="rgb(6.298828%, 33.103943%, 53.503418%)" offset="0.390625"/><stop stop-opacity="1" stop-color="rgb(6.298828%, 32.904053%, 53.204346%)" offset="0.398438"/><stop stop-opacity="1" stop-color="rgb(6.298828%, 32.896423%, 52.999878%)" offset="0.40625"/><stop stop-opacity="1" stop-color="rgb(6.298828%, 32.698059%, 52.89917%)" offset="0.421875"/><stop stop-opacity="1" stop-color="rgb(6.298828%, 32.501221%, 52.705383%)" offset="0.4375"/><stop stop-opacity="1" stop-color="rgb(6.201172%, 32.499695%, 52.505493%)" offset="0.445312"/><stop stop-opacity="1" stop-color="rgb(6.001282%, 32.498169%, 52.497864%)" offset="0.453125"/><stop stop-opacity="1" stop-color="rgb(5.899048%, 32.350159%, 52.349854%)" offset="0.46875"/><stop stop-opacity="1" stop-color="rgb(5.899048%, 32.200623%, 52.099609%)" offset="0.476562"/><stop stop-opacity="1" stop-color="rgb(5.899048%, 32.194519%, 51.898193%)" offset="0.484375"/><stop stop-opacity="1" stop-color="rgb(5.899048%, 31.994629%, 51.799011%)" offset="0.5"/><stop stop-opacity="1" stop-color="rgb(5.899048%, 31.799316%, 51.603699%)" offset="0.515625"/><stop stop-opacity="1" stop-color="rgb(5.899048%, 31.700134%, 51.403809%)" offset="0.523438"/><stop stop-opacity="1" stop-color="rgb(5.899048%, 31.500244%, 51.396179%)" offset="0.53125"/><stop stop-opacity="1" stop-color="rgb(5.899048%, 31.399536%, 51.197815%)" offset="0.546875"/><stop stop-opacity="1" stop-color="rgb(5.899048%, 31.399536%, 50.80719%)" offset="0.5625"/><stop stop-opacity="1" stop-color="rgb(5.801392%, 31.30188%, 50.605774%)" offset="0.570312"/><stop stop-opacity="1" stop-color="rgb(5.601501%, 31.10199%, 50.598145%)" offset="0.578125"/><stop stop-opacity="1" stop-color="rgb(5.499268%, 30.999756%, 50.401306%)" offset="0.59375"/><stop stop-opacity="1" stop-color="rgb(5.499268%, 30.897522%, 50.100708%)" offset="0.601562"/><stop stop-opacity="1" stop-color="rgb(5.499268%, 30.697632%, 49.897766%)" offset="0.609375"/><stop stop-opacity="1" stop-color="rgb(5.499268%, 30.599976%, 49.798584%)" offset="0.625"/><stop stop-opacity="1" stop-color="rgb(5.499268%, 30.599976%, 49.603271%)" offset="0.640625"/><stop stop-opacity="1" stop-color="rgb(5.499268%, 30.500793%, 49.403381%)" offset="0.648438"/><stop stop-opacity="1" stop-color="rgb(5.499268%, 30.299377%, 49.395752%)" offset="0.65625"/><stop stop-opacity="1" stop-color="rgb(5.499268%, 30.198669%, 49.197388%)" offset="0.671875"/><stop stop-opacity="1" stop-color="rgb(5.499268%, 30.004883%, 48.806763%)" offset="0.6875"/><stop stop-opacity="1" stop-color="rgb(5.401611%, 29.804993%, 48.605347%)" offset="0.695312"/><stop stop-opacity="1" stop-color="rgb(5.201721%, 29.798889%, 48.597717%)" offset="0.703125"/><stop stop-opacity="1" stop-color="rgb(5.099487%, 29.798889%, 48.400879%)" offset="0.71875"/><stop stop-opacity="1" stop-color="rgb(5.099487%, 29.698181%, 48.202515%)" offset="0.726562"/><stop stop-opacity="1" stop-color="rgb(5.099487%, 29.498291%, 48.194885%)" offset="0.734375"/><stop stop-opacity="1" stop-color="rgb(5.099487%, 29.399109%, 47.994995%)" offset="0.75"/><stop stop-opacity="1" stop-color="rgb(5.099487%, 29.203796%, 47.653198%)" offset="0.765625"/><stop stop-opacity="1" stop-color="rgb(5.099487%, 29.003906%, 47.499084%)" offset="0.78125"/><stop stop-opacity="1" stop-color="rgb(5.099487%, 28.999329%, 47.297668%)" offset="0.796875"/><stop stop-opacity="1" stop-color="rgb(5.099487%, 28.805542%, 47.10083%)" offset="0.8125"/><stop stop-opacity="1" stop-color="rgb(5.001831%, 28.605652%, 47.001648%)" offset="0.820312"/><stop stop-opacity="1" stop-color="rgb(4.801941%, 28.598022%, 46.800232%)" offset="0.828125"/><stop stop-opacity="1" stop-color="rgb(4.699707%, 28.401184%, 46.50116%)" offset="0.84375"/><stop stop-opacity="1" stop-color="rgb(4.699707%, 28.20282%, 46.296692%)" offset="0.859375"/><stop stop-opacity="1" stop-color="rgb(4.699707%, 28.199768%, 46.09375%)" offset="0.875"/><stop stop-opacity="1" stop-color="rgb(4.699707%, 28.004456%, 45.899963%)" offset="0.890625"/><stop stop-opacity="1" stop-color="rgb(4.699707%, 27.804565%, 45.800781%)" offset="0.898438"/><stop stop-opacity="1" stop-color="rgb(4.699707%, 27.796936%, 45.596313%)" offset="0.90625"/><stop stop-opacity="1" stop-color="rgb(4.699707%, 27.6474%, 45.297241%)" offset="0.921875"/><stop stop-opacity="1" stop-color="rgb(4.699707%, 27.49939%, 45.100403%)" offset="0.9375"/><stop stop-opacity="1" stop-color="rgb(4.602051%, 27.49939%, 45.001221%)" offset="0.945312"/><stop stop-opacity="1" stop-color="rgb(4.402161%, 27.497864%, 44.799805%)" offset="0.953125"/><stop stop-opacity="1" stop-color="rgb(4.299927%, 27.301025%, 44.500732%)" offset="0.96875"/><stop stop-opacity="1" stop-color="rgb(4.299927%, 27.098083%, 44.297791%)" offset="0.984375"/><stop stop-opacity="1" stop-color="rgb(4.299927%, 26.895142%, 44.094849%)" offset="1"/></linearGradient></defs><g clip-path="url(#a4eea961df)"><g clip-path="url(#501aebe6e0)"><path fill="url(#40d8a65d6b)" d="M 47.433594 159.371094 L 47.433594 215.621094 L 103.683594 215.621094 L 103.683594 159.371094 Z M 47.433594 159.371094 " fill-rule="nonzero"/></g></g><path fill="#ffffff" d="M 89.027344 172.3125 C 89.46875 171.933594 89.417969 171.652344 88.863281 171.46875 C 87.195312 171.464844 85.527344 171.464844 83.859375 171.464844 C 83.066406 171.464844 76.292969 171.164062 76.632812 172.050781 C 76.878906 172.6875 78.648438 172.328125 79.128906 172.363281 C 80.589844 172.671875 81.800781 173.863281 82.179688 175.304688 C 80.59375 175.332031 78.605469 174.972656 77.105469 175.601562 C 74.898438 176.523438 74.351562 179.460938 73.207031 181.324219 C 71.109375 184.742188 68.066406 187.574219 64.507812 189.421875 C 62.613281 190.40625 60.578125 191.113281 58.484375 191.523438 C 55.601562 192.085938 56.277344 192.507812 56.28125 195.5 C 56.285156 197.933594 56.363281 197.851562 58.808594 197.851562 C 61.738281 197.851562 64.667969 197.851562 67.597656 197.851562 C 72.871094 197.851562 78.140625 197.851562 83.414062 197.851562 C 86.953125 197.851562 93.386719 199.21875 94.621094 194.546875 C 95.539062 191.082031 95.058594 185.105469 93.847656 181.742188 C 93.234375 180.203125 92.515625 176.523438 91.097656 175.574219 C 89.554688 174.542969 85.570312 175.316406 83.761719 175.308594 C 84.457031 172.492188 86.742188 172.589844 89.027344 172.3125 C 89.515625 172.191406 88.296875 172.398438 89.027344 172.3125 Z M 82.992188 174.855469 C 82.273438 174.046875 82.085938 173.082031 81.160156 172.347656 C 82.355469 172.328125 83.546875 172.328125 84.738281 172.347656 C 84.527344 172.582031 83.351562 173.769531 82.992188 174.855469 Z M 90.597656 177.109375 C 91.679688 177.425781 92.34375 180.453125 92.726562 181.371094 C 93.472656 183.226562 91.699219 183.039062 90.390625 183.039062 C 86.050781 183.042969 81.707031 183.035156 77.367188 183.039062 C 74.820312 183.050781 77.664062 177.042969 78.84375 177.078125 C 82.445312 177.074219 87.101562 176.277344 90.597656 177.109375 C 90.882812 177.191406 90.363281 177.054688 90.597656 177.109375 Z M 71.078125 191.472656 C 71.070312 189.824219 71.078125 188.179688 71.074219 186.53125 C 70.972656 185.996094 73.378906 183.972656 73.765625 183.546875 C 73.707031 185.777344 74.613281 190.667969 71.078125 191.472656 Z M 67.367188 193.039062 C 67.359375 189.875 67.148438 189.304688 69.761719 187.445312 C 69.785156 188.90625 70.609375 192.140625 67.367188 193.039062 Z M 91.519531 188.992188 C 93.230469 189.429688 92.765625 192.148438 90.996094 191.933594 C 88.910156 191.851562 89.453125 188.375 91.519531 188.992188 C 92.246094 189.179688 90.757812 188.765625 91.519531 188.992188 Z M 79.648438 188.992188 C 81.480469 189.449219 80.78125 192.34375 78.945312 191.910156 C 77.019531 191.5625 77.707031 188.414062 79.648438 188.992188 C 80.414062 189.183594 78.882812 188.765625 79.648438 188.992188 Z M 64.113281 194.042969 C 64.078125 191.238281 63.8125 190.957031 66.222656 189.707031 C 66.222656 190.957031 66.859375 193.386719 64.113281 194.042969 Z M 61.296875 194.640625 C 61.324219 192.28125 60.878906 191.863281 63.085938 191.089844 C 63.09375 192.160156 63.714844 194.363281 61.296875 194.640625 Z M 58.917969 194.988281 C 58.929688 193.085938 58.183594 192.207031 60.445312 191.917969 C 60.441406 192.871094 61.238281 194.824219 58.917969 194.988281 Z M 56.984375 195.152344 C 56.992188 193.757812 56.222656 192.191406 58.226562 192.390625 C 58.207031 193.277344 58.980469 195.15625 56.984375 195.152344 Z M 56.984375 195.152344 " fill-opacity="1" fill-rule="nonzero"/><path fill="#ffffff" d="M 91.828125 199.257812 C 90.375 199.261719 88.921875 199.261719 87.46875 199.257812 C 87.191406 201.507812 86.554688 200.738281 84.296875 200.742188 C 82.121094 200.75 80.882812 201.660156 80.703125 199.261719 C 78.960938 199.261719 77.21875 199.261719 75.476562 199.261719 C 71.992188 199.261719 68.507812 199.261719 65.023438 199.261719 C 63.28125 199.261719 61.535156 199.261719 59.796875 199.261719 C 57.804688 199.261719 56.273438 198.300781 56.296875 200.71875 C 64.324219 200.691406 71.976562 202.949219 79.863281 202.949219 C 83.738281 202.949219 87.609375 202.949219 91.484375 202.949219 C 93.074219 202.949219 94.808594 203.800781 94.8125 201.84375 C 94.820312 198.976562 92.050781 202.609375 91.828125 199.257812 C 90.375 199.261719 91.859375 199.75 91.828125 199.257812 Z M 91.828125 199.257812 " fill-opacity="1" fill-rule="nonzero"/><g fill="#ffffff" fill-opacity="1"><g transform="translate(114.47423, 196.63111)"><g><path d="M 9.578125 -5.171875 L 14.3125 -20.875 L 19.09375 -20.875 L 11.828125 0 L 7.34375 0 L 0.09375 -20.875 L 4.875 -20.875 Z M 9.578125 -5.171875 "/></g></g></g><g fill="#ffffff" fill-opacity="1"><g transform="translate(133.666134, 196.63111)"><g><path d="M 8.734375 0.28125 C 6.453125 0.28125 4.597656 -0.414062 3.171875 -1.8125 C 1.742188 -3.207031 1.03125 -5.066406 1.03125 -7.390625 L 1.03125 -7.78125 C 1.03125 -9.34375 1.332031 -10.738281 1.9375 -11.96875 C 2.539062 -13.195312 3.394531 -14.140625 4.5 -14.796875 C 5.601562 -15.460938 6.859375 -15.796875 8.265625 -15.796875 C 10.390625 -15.796875 12.0625 -15.125 13.28125 -13.78125 C 14.5 -12.445312 15.109375 -10.550781 15.109375 -8.09375 L 15.109375 -6.40625 L 5.234375 -6.40625 C 5.367188 -5.394531 5.769531 -4.582031 6.4375 -3.96875 C 7.113281 -3.351562 7.96875 -3.046875 9 -3.046875 C 10.59375 -3.046875 11.84375 -3.625 12.75 -4.78125 L 14.78125 -2.515625 C 14.15625 -1.628906 13.3125 -0.941406 12.25 -0.453125 C 11.195312 0.0351562 10.023438 0.28125 8.734375 0.28125 Z M 8.25 -12.4375 C 7.4375 -12.4375 6.769531 -12.160156 6.25 -11.609375 C 5.738281 -11.054688 5.414062 -10.265625 5.28125 -9.234375 L 11.03125 -9.234375 L 11.03125 -9.5625 C 11.019531 -10.476562 10.773438 -11.1875 10.296875 -11.6875 C 9.816406 -12.1875 9.132812 -12.4375 8.25 -12.4375 Z M 8.25 -12.4375 "/></g></g></g><g fill="#ffffff" fill-opacity="1"><g transform="translate(149.532781, 196.63111)"><g><path d="M 10.3125 -11.625 C 9.75 -11.695312 9.25 -11.734375 8.8125 -11.734375 C 7.25 -11.734375 6.222656 -11.207031 5.734375 -10.15625 L 5.734375 0 L 1.59375 0 L 1.59375 -15.515625 L 5.5 -15.515625 L 5.625 -13.65625 C 6.445312 -15.082031 7.597656 -15.796875 9.078125 -15.796875 C 9.535156 -15.796875 9.960938 -15.734375 10.359375 -15.609375 Z M 10.3125 -11.625 "/></g></g></g><g fill="#ffffff" fill-opacity="1"><g transform="translate(160.239544, 196.63111)"><g><path d="M 6.546875 -19.328125 L 6.546875 -15.515625 L 9.203125 -15.515625 L 9.203125 -12.46875 L 6.546875 -12.46875 L 6.546875 -4.734375 C 6.546875 -4.160156 6.65625 -3.75 6.875 -3.5 C 7.09375 -3.25 7.515625 -3.125 8.140625 -3.125 C 8.597656 -3.125 9.003906 -3.15625 9.359375 -3.21875 L 9.359375 -0.09375 C 8.546875 0.15625 7.710938 0.28125 6.859375 0.28125 C 3.953125 0.28125 2.46875 -1.179688 2.40625 -4.109375 L 2.40625 -12.46875 L 0.140625 -12.46875 L 0.140625 -15.515625 L 2.40625 -15.515625 L 2.40625 -19.328125 Z M 6.546875 -19.328125 "/></g></g></g><g fill="#ffffff" fill-opacity="1"><g transform="translate(170.157987, 196.63111)"><g><path d="M 10.3125 -11.625 C 9.75 -11.695312 9.25 -11.734375 8.8125 -11.734375 C 7.25 -11.734375 6.222656 -11.207031 5.734375 -10.15625 L 5.734375 0 L 1.59375 0 L 1.59375 -15.515625 L 5.5 -15.515625 L 5.625 -13.65625 C 6.445312 -15.082031 7.597656 -15.796875 9.078125 -15.796875 C 9.535156 -15.796875 9.960938 -15.734375 10.359375 -15.609375 Z M 10.3125 -11.625 "/></g></g></g><g fill="#ffffff" fill-opacity="1"><g transform="translate(180.86475, 196.63111)"><g><path d="M 8.734375 0.28125 C 6.453125 0.28125 4.597656 -0.414062 3.171875 -1.8125 C 1.742188 -3.207031 1.03125 -5.066406 1.03125 -7.390625 L 1.03125 -7.78125 C 1.03125 -9.34375 1.332031 -10.738281 1.9375 -11.96875 C 2.539062 -13.195312 3.394531 -14.140625 4.5 -14.796875 C 5.601562 -15.460938 6.859375 -15.796875 8.265625 -15.796875 C 10.390625 -15.796875 12.0625 -15.125 13.28125 -13.78125 C 14.5 -12.445312 15.109375 -10.550781 15.109375 -8.09375 L 15.109375 -6.40625 L 5.234375 -6.40625 C 5.367188 -5.394531 5.769531 -4.582031 6.4375 -3.96875 C 7.113281 -3.351562 7.96875 -3.046875 9 -3.046875 C 10.59375 -3.046875 11.84375 -3.625 12.75 -4.78125 L 14.78125 -2.515625 C 14.15625 -1.628906 13.3125 -0.941406 12.25 -0.453125 C 11.195312 0.0351562 10.023438 0.28125 8.734375 0.28125 Z M 8.25 -12.4375 C 7.4375 -12.4375 6.769531 -12.160156 6.25 -11.609375 C 5.738281 -11.054688 5.414062 -10.265625 5.28125 -9.234375 L 11.03125 -9.234375 L 11.03125 -9.5625 C 11.019531 -10.476562 10.773438 -11.1875 10.296875 -11.6875 C 9.816406 -12.1875 9.132812 -12.4375 8.25 -12.4375 Z M 8.25 -12.4375 "/></g></g></g><g fill="#ffffff" fill-opacity="1"><g transform="translate(196.731397, 196.63111)"><g><path d="M 7.21875 -6.21875 L 5.734375 -4.734375 L 5.734375 0 L 1.59375 0 L 1.59375 -22.015625 L 5.734375 -22.015625 L 5.734375 -9.8125 L 6.53125 -10.859375 L 10.515625 -15.515625 L 15.484375 -15.515625 L 9.875 -9.046875 L 15.96875 0 L 11.203125 0 Z M 7.21875 -6.21875 "/></g></g></g><g fill="#ffffff" fill-opacity="1"><g transform="translate(212.41171, 196.63111)"><g><path d="M 6.546875 -19.328125 L 6.546875 -15.515625 L 9.203125 -15.515625 L 9.203125 -12.46875 L 6.546875 -12.46875 L 6.546875 -4.734375 C 6.546875 -4.160156 6.65625 -3.75 6.875 -3.5 C 7.09375 -3.25 7.515625 -3.125 8.140625 -3.125 C 8.597656 -3.125 9.003906 -3.15625 9.359375 -3.21875 L 9.359375 -0.09375 C 8.546875 0.15625 7.710938 0.28125 6.859375 0.28125 C 3.953125 0.28125 2.46875 -1.179688 2.40625 -4.109375 L 2.40625 -12.46875 L 0.140625 -12.46875 L 0.140625 -15.515625 L 2.40625 -15.515625 L 2.40625 -19.328125 Z M 6.546875 -19.328125 "/></g></g></g><g fill="#ffffff" fill-opacity="1"><g transform="translate(222.330152, 196.63111)"><g><path d="M 5.96875 0 L 1.8125 0 L 1.8125 -15.515625 L 5.96875 -15.515625 Z M 1.5625 -19.53125 C 1.5625 -20.144531 1.769531 -20.648438 2.1875 -21.046875 C 2.601562 -21.453125 3.171875 -21.65625 3.890625 -21.65625 C 4.597656 -21.65625 5.160156 -21.453125 5.578125 -21.046875 C 5.992188 -20.648438 6.203125 -20.144531 6.203125 -19.53125 C 6.203125 -18.894531 5.988281 -18.375 5.5625 -17.96875 C 5.144531 -17.570312 4.585938 -17.375 3.890625 -17.375 C 3.191406 -17.375 2.628906 -17.570312 2.203125 -17.96875 C 1.773438 -18.375 1.5625 -18.894531 1.5625 -19.53125 Z M 1.5625 -19.53125 "/></g></g></g><g fill="#ffffff" fill-opacity="1"><g transform="translate(230.112981, 196.63111)"><g><path d="M 5.984375 -15.515625 L 5.984375 0.84375 C 5.984375 2.550781 5.523438 3.878906 4.609375 4.828125 C 3.703125 5.785156 2.394531 6.265625 0.6875 6.265625 C -0.03125 6.265625 -0.710938 6.179688 -1.359375 6.015625 L -1.359375 2.734375 C -0.859375 2.816406 -0.425781 2.859375 -0.0625 2.859375 C 1.195312 2.859375 1.828125 2.195312 1.828125 0.875 L 1.828125 -15.515625 Z M 1.484375 -19.53125 C 1.484375 -20.144531 1.691406 -20.648438 2.109375 -21.046875 C 2.523438 -21.453125 3.09375 -21.65625 3.8125 -21.65625 C 4.53125 -21.65625 5.097656 -21.453125 5.515625 -21.046875 C 5.929688 -20.648438 6.140625 -20.144531 6.140625 -19.53125 C 6.140625 -18.894531 5.925781 -18.375 5.5 -17.96875 C 5.070312 -17.570312 4.507812 -17.375 3.8125 -17.375 C 3.113281 -17.375 2.550781 -17.570312 2.125 -17.96875 C 1.695312 -18.375 1.484375 -18.894531 1.484375 -19.53125 Z M 1.484375 -19.53125 "/></g></g></g><g fill="#ffffff" fill-opacity="1"><g transform="translate(237.738143, 196.63111)"><g><path d="M 0.953125 -7.875 C 0.953125 -10.289062 1.492188 -12.210938 2.578125 -13.640625 C 3.660156 -15.078125 5.144531 -15.796875 7.03125 -15.796875 C 8.539062 -15.796875 9.785156 -15.234375 10.765625 -14.109375 L 10.765625 -22.015625 L 14.921875 -22.015625 L 14.921875 0 L 11.1875 0 L 10.984375 -1.65625 C 9.953125 -0.363281 8.625 0.28125 7 0.28125 C 5.164062 0.28125 3.695312 -0.4375 2.59375 -1.875 C 1.5 -3.3125 0.953125 -5.3125 0.953125 -7.875 Z M 5.09375 -7.5625 C 5.09375 -6.113281 5.34375 -5 5.84375 -4.21875 C 6.351562 -3.445312 7.09375 -3.0625 8.0625 -3.0625 C 9.34375 -3.0625 10.242188 -3.601562 10.765625 -4.6875 L 10.765625 -10.8125 C 10.242188 -11.882812 9.347656 -12.421875 8.078125 -12.421875 C 6.085938 -12.421875 5.09375 -10.800781 5.09375 -7.5625 Z M 5.09375 -7.5625 "/></g></g></g><g fill="#ffffff" fill-opacity="1"><g transform="translate(254.278436, 196.63111)"><g><path d="M 8.734375 0.28125 C 6.453125 0.28125 4.597656 -0.414062 3.171875 -1.8125 C 1.742188 -3.207031 1.03125 -5.066406 1.03125 -7.390625 L 1.03125 -7.78125 C 1.03125 -9.34375 1.332031 -10.738281 1.9375 -11.96875 C 2.539062 -13.195312 3.394531 -14.140625 4.5 -14.796875 C 5.601562 -15.460938 6.859375 -15.796875 8.265625 -15.796875 C 10.390625 -15.796875 12.0625 -15.125 13.28125 -13.78125 C 14.5 -12.445312 15.109375 -10.550781 15.109375 -8.09375 L 15.109375 -6.40625 L 5.234375 -6.40625 C 5.367188 -5.394531 5.769531 -4.582031 6.4375 -3.96875 C 7.113281 -3.351562 7.96875 -3.046875 9 -3.046875 C 10.59375 -3.046875 11.84375 -3.625 12.75 -4.78125 L 14.78125 -2.515625 C 14.15625 -1.628906 13.3125 -0.941406 12.25 -0.453125 C 11.195312 0.0351562 10.023438 0.28125 8.734375 0.28125 Z M 8.25 -12.4375 C 7.4375 -12.4375 6.769531 -12.160156 6.25 -11.609375 C 5.738281 -11.054688 5.414062 -10.265625 5.28125 -9.234375 L 11.03125 -9.234375 L 11.03125 -9.5625 C 11.019531 -10.476562 10.773438 -11.1875 10.296875 -11.6875 C 9.816406 -12.1875 9.132812 -12.4375 8.25 -12.4375 Z M 8.25 -12.4375 "/></g></g></g><g fill="#ffffff" fill-opacity="1"><g transform="translate(270.145083, 196.63111)"><g><path d="M 5.40625 -15.515625 L 5.53125 -13.71875 C 6.644531 -15.101562 8.128906 -15.796875 9.984375 -15.796875 C 11.628906 -15.796875 12.851562 -15.3125 13.65625 -14.34375 C 14.457031 -13.382812 14.867188 -11.941406 14.890625 -10.015625 L 14.890625 0 L 10.75 0 L 10.75 -9.921875 C 10.75 -10.796875 10.554688 -11.429688 10.171875 -11.828125 C 9.796875 -12.222656 9.160156 -12.421875 8.265625 -12.421875 C 7.097656 -12.421875 6.222656 -11.925781 5.640625 -10.9375 L 5.640625 0 L 1.5 0 L 1.5 -15.515625 Z M 5.40625 -15.515625 "/></g></g></g><g fill="#ffffff" fill-opacity="1"><g transform="translate(286.58505, 196.63111)"><g><path d="M 1.8125 -2.03125 C 1.8125 -2.695312 2.03125 -3.234375 2.46875 -3.640625 C 2.914062 -4.046875 3.472656 -4.25 4.140625 -4.25 C 4.816406 -4.25 5.378906 -4.046875 5.828125 -3.640625 C 6.273438 -3.234375 6.5 -2.695312 6.5 -2.03125 C 6.5 -1.382812 6.273438 -0.859375 5.828125 -0.453125 C 5.390625 -0.046875 4.828125 0.15625 4.140625 0.15625 C 3.460938 0.15625 2.90625 -0.046875 2.46875 -0.453125 C 2.03125 -0.859375 1.8125 -1.382812 1.8125 -2.03125 Z M 1.8125 -2.03125 "/></g></g></g><g fill="#ffffff" fill-opacity="1"><g transform="translate(295.113195, 196.63111)"><g><path d="M 15.5625 -7.609375 C 15.5625 -5.128906 15.03125 -3.191406 13.96875 -1.796875 C 12.914062 -0.410156 11.4375 0.28125 9.53125 0.28125 C 7.851562 0.28125 6.507812 -0.363281 5.5 -1.65625 L 5.3125 0 L 1.59375 0 L 1.59375 -22.015625 L 5.734375 -22.015625 L 5.734375 -14.125 C 6.691406 -15.238281 7.945312 -15.796875 9.5 -15.796875 C 11.394531 -15.796875 12.878906 -15.097656 13.953125 -13.703125 C 15.023438 -12.316406 15.5625 -10.363281 15.5625 -7.84375 Z M 11.421875 -7.90625 C 11.421875 -9.476562 11.171875 -10.625 10.671875 -11.34375 C 10.179688 -12.0625 9.441406 -12.421875 8.453125 -12.421875 C 7.140625 -12.421875 6.234375 -11.882812 5.734375 -10.8125 L 5.734375 -4.6875 C 6.242188 -3.59375 7.160156 -3.046875 8.484375 -3.046875 C 9.828125 -3.046875 10.707031 -3.707031 11.125 -5.03125 C 11.320312 -5.664062 11.421875 -6.625 11.421875 -7.90625 Z M 11.421875 -7.90625 "/></g></g></g><g fill="#ffffff" fill-opacity="1"><g transform="translate(311.639169, 196.63111)"><g><path d="M 8.734375 0.28125 C 6.453125 0.28125 4.597656 -0.414062 3.171875 -1.8125 C 1.742188 -3.207031 1.03125 -5.066406 1.03125 -7.390625 L 1.03125 -7.78125 C 1.03125 -9.34375 1.332031 -10.738281 1.9375 -11.96875 C 2.539062 -13.195312 3.394531 -14.140625 4.5 -14.796875 C 5.601562 -15.460938 6.859375 -15.796875 8.265625 -15.796875 C 10.390625 -15.796875 12.0625 -15.125 13.28125 -13.78125 C 14.5 -12.445312 15.109375 -10.550781 15.109375 -8.09375 L 15.109375 -6.40625 L 5.234375 -6.40625 C 5.367188 -5.394531 5.769531 -4.582031 6.4375 -3.96875 C 7.113281 -3.351562 7.96875 -3.046875 9 -3.046875 C 10.59375 -3.046875 11.84375 -3.625 12.75 -4.78125 L 14.78125 -2.515625 C 14.15625 -1.628906 13.3125 -0.941406 12.25 -0.453125 C 11.195312 0.0351562 10.023438 0.28125 8.734375 0.28125 Z M 8.25 -12.4375 C 7.4375 -12.4375 6.769531 -12.160156 6.25 -11.609375 C 5.738281 -11.054688 5.414062 -10.265625 5.28125 -9.234375 L 11.03125 -9.234375 L 11.03125 -9.5625 C 11.019531 -10.476562 10.773438 -11.1875 10.296875 -11.6875 C 9.816406 -12.1875 9.132812 -12.4375 8.25 -12.4375 Z M 8.25 -12.4375 "/></g></g></g></svg>